<svg width="300" height="300" viewBox="0 0 300 300" fill="none" xmlns="http://www.w3.org/2000/svg">
<mask id="path-1-outside-1_19_12" maskUnits="userSpaceOnUse" x="32" y="78.4474" width="130" height="212" fill="black">
<rect fill="white" x="32" y="78.4474" width="130" height="212"/>
<path d="M40.5068 132.643C41.0141 132.35 41.8311 132.822 43.4639 133.764L77.8486 153.616V196.169C77.8486 198.055 77.8482 198.998 78.3555 199.877C78.8628 200.755 79.6795 201.227 81.3125 202.169L101.67 213.922C103.303 214.865 104.12 215.337 104.627 215.044C105.134 214.752 105.134 213.808 105.134 211.922V169.369L150.876 195.779C152.509 196.722 153.326 197.193 153.833 198.072C154.34 198.95 154.34 199.893 154.34 201.779V279.698C154.34 281.583 154.34 282.526 153.833 282.819C153.326 283.112 152.509 282.641 150.876 281.698L43.4639 219.683C41.831 218.74 41.0141 218.269 40.5068 217.39C39.9997 216.512 40 215.569 40 213.683V135.764C40 133.879 39.9999 132.936 40.5068 132.643ZM40.5068 86.5338C41.0141 86.2409 41.831 86.7121 43.4639 87.6548L150.876 149.669C152.509 150.611 153.326 151.083 153.833 151.961C154.34 152.84 154.34 153.783 154.34 155.669V178.847C154.34 180.733 154.34 181.676 153.833 181.969C153.326 182.262 152.509 181.79 150.876 180.847L105.134 154.438V141.496C105.134 139.61 105.134 138.667 104.627 137.789C104.12 136.91 103.303 136.438 101.67 135.496L81.3125 123.743C79.6795 122.8 78.8628 122.329 78.3555 122.622C77.8483 122.915 77.8486 123.857 77.8486 125.743V138.685L43.4639 118.834C41.8309 117.891 41.0141 117.419 40.5068 116.541C39.9996 115.662 40 114.719 40 112.834V89.6548C40 87.7698 40 86.827 40.5068 86.5338ZM105.134 154.438V169.369L77.8486 153.616V138.685L105.134 154.438Z"/>
</mask>
<path d="M40.5068 132.643C41.0141 132.35 41.8311 132.822 43.4639 133.764L77.8486 153.616V196.169C77.8486 198.055 77.8482 198.998 78.3555 199.877C78.8628 200.755 79.6795 201.227 81.3125 202.169L101.67 213.922C103.303 214.865 104.12 215.337 104.627 215.044C105.134 214.752 105.134 213.808 105.134 211.922V169.369L150.876 195.779C152.509 196.722 153.326 197.193 153.833 198.072C154.34 198.95 154.34 199.893 154.34 201.779V279.698C154.34 281.583 154.34 282.526 153.833 282.819C153.326 283.112 152.509 282.641 150.876 281.698L43.4639 219.683C41.831 218.74 41.0141 218.269 40.5068 217.39C39.9997 216.512 40 215.569 40 213.683V135.764C40 133.879 39.9999 132.936 40.5068 132.643ZM40.5068 86.5338C41.0141 86.2409 41.831 86.7121 43.4639 87.6548L150.876 149.669C152.509 150.611 153.326 151.083 153.833 151.961C154.34 152.84 154.34 153.783 154.34 155.669V178.847C154.34 180.733 154.34 181.676 153.833 181.969C153.326 182.262 152.509 181.79 150.876 180.847L105.134 154.438V141.496C105.134 139.61 105.134 138.667 104.627 137.789C104.12 136.91 103.303 136.438 101.67 135.496L81.3125 123.743C79.6795 122.8 78.8628 122.329 78.3555 122.622C77.8483 122.915 77.8486 123.857 77.8486 125.743V138.685L43.4639 118.834C41.8309 117.891 41.0141 117.419 40.5068 116.541C39.9996 115.662 40 114.719 40 112.834V89.6548C40 87.7698 40 86.827 40.5068 86.5338ZM105.134 154.438V169.369L77.8486 153.616V138.685L105.134 154.438Z" fill="#7D4E7D"/>
<path d="M40.5068 132.643L37.0068 126.581L37.0035 126.583L40.5068 132.643ZM43.4639 133.764L39.9639 139.826L39.9639 139.826L43.4639 133.764ZM77.8486 196.169H84.8486V196.169H77.8486ZM78.3555 199.877L72.2933 203.377L72.2934 203.377L78.3555 199.877ZM81.3125 202.169L77.8125 208.232L77.8126 208.232L81.3125 202.169ZM101.67 213.922L105.17 207.86L105.17 207.86L101.67 213.922ZM104.627 215.044L108.127 221.107L108.127 221.106L104.627 215.044ZM105.134 211.922H112.134V211.922H105.134ZM150.876 195.779L147.376 201.841L147.376 201.841L150.876 195.779ZM153.833 198.072L159.896 194.572L159.895 194.572L153.833 198.072ZM154.34 201.779H147.34V201.779H154.34ZM154.34 279.698H161.34V279.698H154.34ZM153.833 282.819L157.333 288.881L157.335 288.88L153.833 282.819ZM150.876 281.698L147.376 287.76L147.376 287.76L150.876 281.698ZM43.4639 219.683L46.9639 213.621L46.9639 213.621L43.4639 219.683ZM40.5068 217.39L34.4443 220.89L34.4447 220.89L40.5068 217.39ZM40 213.683H47V213.683H40ZM40 135.764H33V135.764H40ZM40.5068 86.5338L37.0068 80.4716L37.0015 80.4747L40.5068 86.5338ZM43.4639 87.6548L39.9639 93.717L39.9639 93.717L43.4639 87.6548ZM150.876 149.669L154.376 143.606L154.376 143.606L150.876 149.669ZM153.833 151.961L159.895 148.461L159.895 148.461L153.833 151.961ZM154.34 155.669H147.34V155.669H154.34ZM154.34 178.847H161.34V178.847H154.34ZM153.833 181.969L157.333 188.031L157.333 188.031L153.833 181.969ZM150.876 180.847L154.376 174.785H154.376L150.876 180.847ZM105.134 141.496H98.1338V141.496H105.134ZM104.627 137.789L110.689 134.289L110.689 134.288L104.627 137.789ZM101.67 135.496L105.17 129.433L105.17 129.433L101.67 135.496ZM81.3125 123.743L77.8125 129.805L77.8126 129.805L81.3125 123.743ZM78.3555 122.622L74.8555 116.559L74.8536 116.561L78.3555 122.622ZM77.8486 125.743H70.8486V125.743H77.8486ZM43.4639 118.834L39.9639 124.896L39.9639 124.896L43.4639 118.834ZM40.5068 116.541L34.4446 120.04L34.4447 120.041L40.5068 116.541ZM40 112.834H47V112.834H40ZM40 89.6548H33V89.6548H40ZM40.5068 132.643L44.0068 138.705C42.5918 139.522 41.1913 139.623 40.2415 139.526C39.4246 139.442 38.894 139.212 38.8421 139.19C38.7499 139.151 38.7767 139.155 39.0199 139.289C39.2517 139.416 39.5356 139.579 39.9639 139.826L43.4639 133.764L46.9639 127.702C46.3234 127.332 45.2573 126.701 44.2845 126.291C43.6201 126.011 40.3895 124.628 37.0068 126.581L40.5068 132.643ZM43.4639 133.764L39.9639 139.826L74.3487 159.678L77.8486 153.616L81.3486 147.554L46.9638 127.702L43.4639 133.764ZM77.8486 153.616H70.8486V196.169H77.8486H84.8486V153.616H77.8486ZM77.8486 196.169H70.8486C70.8486 197.385 70.6453 200.522 72.2933 203.377L78.3555 199.877L84.4176 196.377C84.4913 196.504 84.5614 196.643 84.6247 196.791C84.6879 196.939 84.7375 197.08 84.7756 197.209C84.8512 197.465 84.8696 197.633 84.8707 197.643C84.8712 197.648 84.8684 197.623 84.8648 197.558C84.8612 197.492 84.8577 197.4 84.8549 197.27C84.8521 197.141 84.8504 196.988 84.8495 196.801C84.8486 196.613 84.8486 196.409 84.8486 196.169H77.8486ZM78.3555 199.877L72.2934 203.377C73.941 206.23 76.7575 207.623 77.8125 208.232L81.3125 202.169L84.8125 196.107C84.6051 195.988 84.4288 195.886 84.2662 195.791C84.1048 195.697 83.9738 195.619 83.8628 195.552C83.752 195.485 83.6742 195.435 83.6193 195.4C83.5648 195.364 83.5447 195.349 83.5485 195.352C83.5564 195.358 83.6926 195.458 83.8761 195.651C83.9688 195.748 84.0661 195.862 84.1624 195.99C84.2589 196.119 84.344 196.249 84.4176 196.376L78.3555 199.877ZM81.3125 202.169L77.8126 208.232L98.17 219.985L101.67 213.922L105.17 207.86L84.8124 196.107L81.3125 202.169ZM101.67 213.922L98.1699 219.985C98.8091 220.354 99.8752 220.985 100.847 221.395C101.509 221.675 104.742 223.061 108.127 221.107L104.627 215.044L101.127 208.982C102.543 208.165 103.945 208.064 104.896 208.162C105.713 208.246 106.243 208.477 106.295 208.499C106.386 208.537 106.359 208.533 106.115 208.399C105.883 208.272 105.599 208.108 105.17 207.86L101.67 213.922ZM104.627 215.044L108.127 221.106C111.512 219.152 111.928 215.659 112.017 214.946C112.147 213.899 112.134 212.661 112.134 211.922H105.134H98.1338C98.1338 212.418 98.1335 212.745 98.1276 213.01C98.1215 213.288 98.112 213.314 98.1243 213.216C98.1312 213.16 98.1963 212.585 98.5321 211.836C98.9226 210.965 99.7102 209.8 101.127 208.983L104.627 215.044ZM105.134 211.922H112.134V169.369H105.134H98.1338V211.922H105.134ZM105.134 169.369L101.634 175.431L147.376 201.841L150.876 195.779L154.376 189.717L108.634 163.307L105.134 169.369ZM150.876 195.779L147.376 201.841C147.583 201.961 147.76 202.063 147.922 202.157C148.084 202.252 148.215 202.329 148.326 202.397C148.436 202.464 148.514 202.513 148.569 202.549C148.624 202.584 148.644 202.599 148.64 202.596C148.632 202.591 148.496 202.491 148.312 202.298C148.22 202.2 148.122 202.087 148.026 201.958C147.93 201.829 147.844 201.699 147.771 201.572L153.833 198.072L159.895 194.572C158.248 191.718 155.431 190.326 154.376 189.717L150.876 195.779ZM153.833 198.072L147.771 201.571C147.697 201.444 147.627 201.305 147.564 201.157C147.5 201.009 147.451 200.868 147.413 200.739C147.337 200.483 147.319 200.315 147.318 200.306C147.317 200.301 147.32 200.326 147.324 200.391C147.327 200.457 147.331 200.549 147.334 200.678C147.336 200.808 147.338 200.96 147.339 201.147C147.34 201.336 147.34 201.539 147.34 201.779H154.34H161.34C161.34 200.563 161.543 197.426 159.896 194.572L153.833 198.072ZM154.34 201.779H147.34V279.698H154.34H161.34V201.779H154.34ZM154.34 279.698H147.34C147.34 280.193 147.34 280.52 147.334 280.785C147.328 281.063 147.318 281.089 147.33 280.99C147.337 280.934 147.402 280.359 147.738 279.61C148.129 278.739 148.916 277.576 150.331 276.758L153.833 282.819L157.335 288.88C160.717 286.926 161.134 283.436 161.223 282.721C161.353 281.675 161.34 280.436 161.34 279.698H154.34ZM153.833 282.819L150.333 276.757C151.748 275.94 153.148 275.839 154.098 275.936C154.915 276.02 155.446 276.25 155.498 276.272C155.59 276.311 155.563 276.307 155.32 276.173C155.088 276.046 154.804 275.883 154.376 275.636L150.876 281.698L147.376 287.76C148.016 288.13 149.083 288.761 150.055 289.171C150.72 289.452 153.95 290.834 157.333 288.881L153.833 282.819ZM150.876 281.698L154.376 275.636L46.9639 213.621L43.4639 219.683L39.9639 225.745L147.376 287.76L150.876 281.698ZM43.4639 219.683L46.9639 213.621C46.7565 213.501 46.5801 213.399 46.4176 213.305C46.2562 213.21 46.1252 213.133 46.0142 213.065C45.9034 212.998 45.8255 212.949 45.7707 212.913C45.7161 212.878 45.696 212.863 45.6999 212.866C45.7078 212.871 45.844 212.971 46.0275 213.164C46.1201 213.262 46.2174 213.375 46.3138 213.504C46.4103 213.633 46.4954 213.763 46.569 213.89L40.5068 217.39L34.4447 220.89C36.0923 223.744 38.9091 225.136 39.9639 225.745L43.4639 219.683ZM40.5068 217.39L46.5694 213.891C46.643 214.018 46.7131 214.157 46.7763 214.305C46.8395 214.453 46.889 214.594 46.9271 214.723C47.0026 214.979 47.021 215.147 47.0221 215.156C47.0226 215.161 47.0198 215.136 47.0162 215.071C47.0126 215.005 47.009 214.913 47.0063 214.784C47.0035 214.654 47.0018 214.502 47.0009 214.315C47 214.126 47 213.923 47 213.683H40H33C33 214.899 32.797 218.036 34.4443 220.89L40.5068 217.39ZM40 213.683H47V135.764H40H33V213.683H40ZM40 135.764H47C47 135.269 47.0003 134.942 47.0062 134.677C47.0123 134.4 47.0219 134.374 47.0095 134.473C47.0026 134.528 46.9374 135.103 46.6018 135.852C46.2116 136.723 45.4248 137.886 44.0102 138.703L40.5068 132.643L37.0035 126.583C33.6224 128.537 33.2061 132.027 33.1171 132.741C32.9866 133.787 33 135.026 33 135.764H40ZM40.5068 86.5338L44.0068 92.5959C42.5921 93.4127 41.1916 93.5136 40.2417 93.4165C39.4247 93.333 38.894 93.1023 38.842 93.0804C38.7498 93.0414 38.7766 93.0459 39.0198 93.1792C39.2516 93.3063 39.5355 93.4697 39.9639 93.717L43.4639 87.6548L46.9639 81.5927C46.3234 81.2229 45.2572 80.592 44.2845 80.1815C43.6198 79.9011 40.3893 78.5187 37.0068 80.4716L40.5068 86.5338ZM43.4639 87.6548L39.9639 93.717L147.376 155.731L150.876 149.669L154.376 143.606L46.9638 81.5926L43.4639 87.6548ZM150.876 149.669L147.376 155.731C147.583 155.85 147.76 155.952 147.922 156.047C148.084 156.141 148.215 156.219 148.326 156.286C148.436 156.353 148.514 156.403 148.569 156.438C148.624 156.474 148.644 156.489 148.64 156.486C148.632 156.48 148.496 156.38 148.312 156.187C148.22 156.09 148.123 155.976 148.026 155.848C147.93 155.719 147.845 155.589 147.771 155.462L153.833 151.961L159.895 148.461C158.247 145.608 155.431 144.216 154.376 143.606L150.876 149.669ZM153.833 151.961L147.771 155.461C147.697 155.334 147.627 155.195 147.564 155.047C147.501 154.899 147.451 154.758 147.413 154.629C147.337 154.373 147.319 154.205 147.318 154.195C147.317 154.191 147.32 154.215 147.324 154.281C147.327 154.346 147.331 154.438 147.334 154.568C147.336 154.698 147.338 154.85 147.339 155.037C147.34 155.225 147.34 155.429 147.34 155.669H154.34H161.34C161.34 154.453 161.543 151.316 159.895 148.461L153.833 151.961ZM154.34 155.669H147.34V178.847H154.34H161.34V155.669H154.34ZM154.34 178.847H147.34C147.34 179.342 147.34 179.67 147.334 179.935C147.328 180.213 147.318 180.239 147.33 180.14C147.337 180.085 147.402 179.51 147.738 178.761C148.129 177.889 148.916 176.725 150.333 175.907L153.833 181.969L157.333 188.031C160.718 186.077 161.134 182.584 161.223 181.871C161.353 180.824 161.34 179.586 161.34 178.847H154.34ZM153.833 181.969L150.333 175.907C151.749 175.089 153.151 174.989 154.102 175.087C154.919 175.171 155.449 175.402 155.501 175.423C155.592 175.462 155.565 175.458 155.321 175.324C155.089 175.196 154.805 175.033 154.376 174.785L150.876 180.847L147.376 186.909C148.015 187.278 149.081 187.91 150.053 188.32C150.715 188.6 153.948 189.986 157.333 188.031L153.833 181.969ZM150.876 180.847L154.376 174.785L108.634 148.376L105.134 154.438L101.634 160.5L147.376 186.909L150.876 180.847ZM105.134 154.438H112.134V141.496H105.134H98.1338V154.438H105.134ZM105.134 141.496H112.134C112.134 140.28 112.337 137.143 110.689 134.289L104.627 137.789L98.5648 141.289C98.4911 141.161 98.421 141.022 98.3577 140.874C98.2945 140.726 98.2449 140.585 98.2067 140.456C98.1312 140.2 98.1128 140.032 98.1117 140.022C98.1112 140.018 98.114 140.043 98.1176 140.108C98.1212 140.173 98.1248 140.265 98.1275 140.395C98.1303 140.525 98.132 140.677 98.1329 140.864C98.1338 141.052 98.1338 141.256 98.1338 141.496H105.134ZM104.627 137.789L110.689 134.288C109.041 131.435 106.225 130.043 105.17 129.433L101.67 135.496L98.1699 141.558C98.3773 141.678 98.5536 141.779 98.7161 141.874C98.8775 141.968 99.0085 142.046 99.1195 142.113C99.2303 142.181 99.3081 142.23 99.363 142.265C99.4175 142.301 99.4377 142.316 99.4338 142.313C99.426 142.307 99.2898 142.207 99.1064 142.014C99.0137 141.917 98.9164 141.804 98.8201 141.675C98.7237 141.546 98.6385 141.416 98.565 141.289L104.627 137.789ZM101.67 135.496L105.17 129.433L84.8124 117.681L81.3125 123.743L77.8126 129.805L98.17 141.558L101.67 135.496ZM81.3125 123.743L84.8125 117.681C84.172 117.311 83.1058 116.68 82.1331 116.269C81.4681 115.989 78.2378 114.607 74.8555 116.559L78.3555 122.622L81.8555 128.684C80.4409 129.501 79.0406 129.601 78.0905 129.504C77.2734 129.421 76.7427 129.19 76.6906 129.168C76.5984 129.129 76.6251 129.134 76.8684 129.267C77.1002 129.394 77.3841 129.558 77.8125 129.805L81.3125 123.743ZM78.3555 122.622L74.8536 116.561C71.4713 118.515 71.0547 122.004 70.9656 122.719C70.8352 123.766 70.8486 125.004 70.8486 125.743H77.8486H84.8486C84.8486 125.248 84.849 124.92 84.8548 124.655C84.8609 124.377 84.8705 124.352 84.8581 124.451C84.8512 124.507 84.7859 125.081 84.45 125.831C84.0593 126.703 83.272 127.865 81.8573 128.683L78.3555 122.622ZM77.8486 125.743H70.8486V138.685H77.8486H84.8486V125.743H77.8486ZM77.8486 138.685L81.3486 132.623L46.9638 112.771L43.4639 118.834L39.9639 124.896L74.3487 144.747L77.8486 138.685ZM43.4639 118.834L46.9639 112.771C46.7564 112.652 46.5801 112.55 46.4176 112.455C46.2562 112.361 46.1251 112.283 46.0142 112.216C45.9034 112.149 45.8255 112.099 45.7707 112.064C45.7161 112.028 45.696 112.013 45.6999 112.016C45.7078 112.022 45.844 112.122 46.0275 112.315C46.1202 112.412 46.2175 112.526 46.3138 112.654C46.4103 112.783 46.4955 112.913 46.569 113.041L40.5068 116.541L34.4447 120.041C36.0923 122.894 38.909 124.287 39.9639 124.896L43.4639 118.834ZM40.5068 116.541L46.5691 113.041C46.6427 113.168 46.7129 113.307 46.7761 113.455C46.8393 113.603 46.8889 113.744 46.927 113.873C47.0026 114.129 47.021 114.297 47.0221 114.307C47.0226 114.312 47.0198 114.287 47.0162 114.221C47.0126 114.156 47.009 114.064 47.0062 113.934C47.0035 113.805 47.0018 113.652 47.0009 113.465C47 113.277 47 113.073 47 112.834H40H33C33 114.049 32.7967 117.186 34.4446 120.04L40.5068 116.541ZM40 112.834H47V89.6548H40H33V112.834H40ZM40 89.6548L47 89.6548C47 89.1601 47.0004 88.8325 47.0062 88.568C47.0123 88.2905 47.0219 88.2648 47.0095 88.3637C47.0026 88.4193 46.9374 88.9935 46.602 89.7421C46.2121 90.6124 45.4259 91.7749 44.0122 92.5928L40.5068 86.5338L37.0015 80.4747C33.6227 82.4294 33.2063 85.9165 33.1172 86.6311C32.9866 87.6778 33 88.9159 33 89.6548H40ZM105.134 154.438H98.1338V169.369H105.134H112.134V154.438H105.134ZM105.134 169.369L108.634 163.307L81.3486 147.554L77.8486 153.616L74.3487 159.678L101.634 175.431L105.134 169.369ZM77.8486 153.616H84.8486V138.685H77.8486H70.8486V153.616H77.8486ZM77.8486 138.685L74.3487 144.747L101.634 160.5L105.134 154.438L108.634 148.376L81.3486 132.623L77.8486 138.685Z" fill="#422742" mask="url(#path-1-outside-1_19_12)"/>
<rect x="2.08616e-07" y="-3.5" width="127.399" height="127.399" rx="5.5" transform="matrix(0.866025 0.5 -0.866025 0.5 151.8 15.25)" fill="#7D4E7D" stroke="#422742" stroke-width="7"/>
<rect x="215.411" y="192.95" width="62.8772" height="62.8772" rx="19.5" transform="rotate(45 215.411 192.95)" fill="#7D4E7D" stroke="#422742" stroke-width="7"/>
<rect x="169.5" y="26.5" width="90" height="207" rx="19.5" fill="#7D4E7D" stroke="#422742" stroke-width="7"/>
</svg>
